<svg width="20" height="23" viewBox="0 0 20 23" fill="none" xmlns="http://www.w3.org/2000/svg">
    <path
        d="M12.5298 10.2885L14.1789 7.49046L18.6236 14.4134L18.6257 15.7419L18.6112 6.59963C18.6007 6.37615 18.482 6.1717 18.2927 6.05115L10.2905 1.44815C10.1033 1.35617 9.86588 1.35715 9.67906 1.45101C9.65383 1.46369 9.63007 1.47742 9.60742 1.4924L9.57955 1.50996L1.81209 6.01115L1.78192 6.02481C1.74318 6.04265 1.70402 6.0653 1.66722 6.09164C1.51998 6.19728 1.42215 6.35344 1.39051 6.52862C1.38577 6.55517 1.38229 6.58221 1.38062 6.60945L1.39281 14.0595L5.5329 7.64258C6.05413 6.79167 7.18983 6.51761 8.24407 6.53252L9.48143 6.5652L2.19089 18.2571L3.0503 18.752L10.4282 6.57705L13.6893 6.5652L6.33036 19.0474L9.39698 20.8112L9.76337 21.0219C9.91835 21.0849 10.1011 21.088 10.2574 21.0317L18.372 16.3291L16.8206 17.2281L12.5298 10.2885ZM13.159 19.3501L10.0616 14.4888L11.9523 11.2805L16.0201 17.6919L13.159 19.3501Z"
        fill="white" fill-opacity="0.1" />
    <path d="M10.0618 14.4886L13.1591 19.3499L16.0203 17.6918L11.9526 11.2803L10.0618 14.4886Z"
        fill="white" fill-opacity="0.7" />
    <path
        d="M18.6257 15.7416L18.6236 14.4131L14.1788 7.49023L12.5298 10.2883L16.8206 17.2278L18.372 16.3289C18.5242 16.2053 18.6163 16.0239 18.626 15.8282L18.6257 15.7416Z"
        fill="white" fill-opacity="0.7" />
    <path
        d="M7.01766e-05 16.9946L2.19091 18.2569L9.48145 6.56499L8.24409 6.53231C7.18985 6.5174 6.05422 6.79146 5.53292 7.64237L1.39283 14.0593L0 16.1993V16.9946H7.01766e-05Z"
        fill="white" fill-opacity="0.7" />
    <path
        d="M13.6892 6.56494L10.4282 6.57679L3.05029 18.7517L5.62906 20.2365L6.33035 19.0471L13.6892 6.56494Z"
        fill="white" fill-opacity="0.7" />
    <path
        d="M19.9999 6.54824C19.9727 5.86625 19.6034 5.24189 19.025 4.87842L10.9179 0.216262C10.3457 -0.0718782 9.63092 -0.0722267 9.05785 0.216053C8.99012 0.250198 1.17381 4.78337 1.17381 4.78337C1.06567 4.83522 0.961489 4.89703 0.863445 4.96713C0.347092 5.33721 0.032333 5.91224 0 6.54406V16.1994L1.39283 14.0594L1.38063 6.60935C1.38231 6.58211 1.38572 6.55535 1.39053 6.52887C1.42196 6.35354 1.51986 6.19718 1.66724 6.09154C1.70403 6.0652 9.65378 1.46359 9.67907 1.45091C9.86596 1.35705 10.1034 1.35607 10.2905 1.44805L18.2927 6.05105C18.482 6.1716 18.6007 6.37605 18.6112 6.59953V15.8283C18.6015 16.024 18.5242 16.2054 18.372 16.329L16.8206 17.228L16.0201 17.6918L13.1589 19.35L10.2573 21.0316C10.101 21.088 9.91829 21.0849 9.76332 21.0218L6.33031 19.0473L5.62901 20.2366L8.71417 22.0129C8.81618 22.0709 8.90712 22.1223 8.98168 22.1643C9.09722 22.2291 9.17589 22.2723 9.2037 22.2858C9.42299 22.3923 9.73844 22.4543 10.0228 22.4543C10.2834 22.4543 10.5376 22.4064 10.7781 22.3122L19.206 17.4314C19.6897 17.0566 19.9743 16.4914 19.9999 15.8791V6.54824Z"
        fill="white" fill-opacity="0.7" />
</svg>
    