<svg width="20" height="21" viewBox="0 0 20 21" fill="none" xmlns="http://www.w3.org/2000/svg">
    <path fill-rule="evenodd" clip-rule="evenodd"
        d="M19.9933 10.0065C19.9933 15.5258 15.5192 19.9999 9.99994 19.9999C4.48076 19.9999 0.0065918 15.5258 0.0065918 10.0065C0.0065918 4.48736 4.48076 0.0131836 9.99994 0.0131836C15.5192 0.0131836 19.9933 4.48736 19.9933 10.0065ZM7.16811 13.9834H5.22868C4.82115 13.9834 4.61984 13.9834 4.4971 13.9049C4.36453 13.8189 4.28352 13.6765 4.2737 13.5194C4.26633 13.3746 4.36699 13.1978 4.5683 12.8443L9.35698 4.40354C9.56075 4.04511 9.66385 3.86589 9.79396 3.79961C9.9339 3.72842 10.1008 3.72842 10.2408 3.79961C10.3709 3.86589 10.474 4.04511 10.6778 4.40354L11.6622 6.12202L11.6672 6.13079C11.8873 6.51531 11.9989 6.71031 12.0476 6.91497C12.1016 7.13837 12.1016 7.37405 12.0476 7.59746C11.9985 7.80367 11.8881 8.00008 11.6647 8.39042L9.14928 12.8369L9.14277 12.8483C8.92124 13.236 8.80897 13.4325 8.65338 13.5807C8.48398 13.7428 8.28022 13.8606 8.05681 13.927C7.85304 13.9834 7.62474 13.9834 7.16811 13.9834ZM12.0658 13.9834H14.8448C15.2548 13.9834 15.461 13.9834 15.5838 13.9025C15.7164 13.8165 15.7998 13.6716 15.8073 13.5146C15.8143 13.3745 15.7158 13.2045 15.5229 12.8716C15.5162 12.8602 15.5096 12.8487 15.5028 12.8369L14.1108 10.4556L14.0949 10.4288C13.8993 10.098 13.8006 9.931 13.6738 9.86644C13.5339 9.79523 13.3693 9.79523 13.2295 9.86644C13.1018 9.93272 12.9987 10.107 12.7949 10.4581L11.4079 12.8394L11.4031 12.8476C11.2001 13.1981 11.0986 13.3733 11.1059 13.517C11.1157 13.6741 11.1967 13.8189 11.3293 13.9049C11.4496 13.9834 11.6558 13.9834 12.0658 13.9834Z"
        fill="#0E071C" />
</svg>
    