<svg width="20" height="20" viewBox="0 0 20 20" fill="none" xmlns="http://www.w3.org/2000/svg">
    <g clip-path="url(#clip0_749_2954)">
    <path d="M6.11584 8.4042L9.99984 4.5203L13.8858 8.4062L16.1458 6.1462L9.99984 0L3.85594 6.1442L6.11584 8.4042ZM0 9.99969L2.26007 7.73962L4.51999 9.99955L2.25994 12.2596L0 9.99969ZM6.11584 11.5958L9.99984 15.4797L13.8857 11.5939L16.1469 13.8527L16.1458 13.8539L9.99984 20L3.85574 13.856L3.85254 13.8528L6.11584 11.5958ZM15.4801 10.0009L17.7401 7.74087L20.0001 10.0008L17.74 12.2609L15.4801 10.0009Z" fill="white" fill-opacity="0.7"/>
    <path d="M12.292 9.99887H12.293L9.99972 7.70557L8.30492 9.40037H8.30482L8.11012 9.59517L7.70852 9.99687L7.70532 9.99997L7.70852 10.0033L9.99972 12.2946L12.293 10.0013L12.2941 9.99997L12.292 9.99887Z" fill="white" fill-opacity="0.7"/>
    </g>
    <defs>
    <clipPath id="clip0_749_2954">
    <rect width="20" height="20" fill="white"/>
    </clipPath>
    </defs>
    </svg>
    