<svg width="20" height="20" viewBox="0 0 20 20" fill="none" xmlns="http://www.w3.org/2000/svg">
    <path
        d="M4.16667 18.3334C3.70833 18.3334 3.31583 18.1703 2.98917 17.8442C2.66306 17.5175 2.5 17.125 2.5 16.6667V5.00002C2.5 4.54169 2.66306 4.14946 2.98917 3.82335C3.31583 3.49669 3.70833 3.33335 4.16667 3.33335H5V2.47919C5 2.24308 5.07972 2.04863 5.23917 1.89585C5.39917 1.74308 5.59722 1.66669 5.83333 1.66669C6.06944 1.66669 6.2675 1.74641 6.4275 1.90585C6.58694 2.06585 6.66667 2.26391 6.66667 2.50002V3.33335H13.3333V2.47919C13.3333 2.24308 13.4133 2.04863 13.5733 1.89585C13.7328 1.74308 13.9306 1.66669 14.1667 1.66669C14.4028 1.66669 14.6006 1.74641 14.76 1.90585C14.92 2.06585 15 2.26391 15 2.50002V3.33335H15.8333C16.2917 3.33335 16.6842 3.49669 17.0108 3.82335C17.3369 4.14946 17.5 4.54169 17.5 5.00002V16.6667C17.5 17.125 17.3369 17.5175 17.0108 17.8442C16.6842 18.1703 16.2917 18.3334 15.8333 18.3334H4.16667ZM4.16667 16.6667H15.8333V8.33335H4.16667V16.6667Z"
        fill="white" fill-opacity="0.7" />
</svg>
    