<svg width="20" height="20" viewBox="0 0 20 20" fill="none" xmlns="http://www.w3.org/2000/svg">
<path d="M10 19C14.9706 19 19 14.9706 19 10C19 5.02944 14.9706 1 10 1C5.02944 1 1 5.02944 1 10C1 14.9706 5.02944 19 10 19Z" fill="#0E071C" fill-opacity="0.0"/>
<path d="M13.9421 8.59668H11.4041V11.1347H13.9421V8.59668Z" fill="#0E071C"/>
<path d="M8.86617 12.0887C8.86617 12.6107 8.43417 13.0427 7.91217 13.0427C7.39017 13.0427 6.95817 12.6107 6.95817 12.0887C6.95817 11.5667 7.39017 11.1347 7.91217 11.1347H8.86617V8.59668H7.91217C5.98617 8.59668 4.42017 10.1627 4.42017 12.0887C4.42017 14.0147 5.98617 15.5807 7.91217 15.5807C9.83817 15.5807 11.4042 14.0147 11.4042 12.0887V11.1347H8.86617V12.0887Z" fill="#0E071C"/>
<path d="M12.358 7.31827H15.22V4.78027H12.358C10.432 4.78027 8.86597 6.34627 8.86597 8.27227V8.59627H11.404V8.27227C11.404 7.75027 11.836 7.31827 12.358 7.31827Z" fill="#0E071C"/>
<path d="M11.404 8.59668H8.86597V11.1347H11.404V8.59668Z" fill="#0E071C" fill-opacity="0"/>
</svg>
