<svg width="30" height="28" viewBox="0 0 30 28" fill="none" xmlns="http://www.w3.org/2000/svg">
<path d="M7.93327 23.7333L4.2666 22.9333C3.93327 22.8666 3.6666 22.6942 3.4666 22.416C3.2666 22.1386 3.18882 21.8333 3.23327 21.5L3.59994 17.7333L1.09993 14.8666C0.877713 14.6222 0.766602 14.3333 0.766602 13.9999C0.766602 13.6666 0.877713 13.3777 1.09993 13.1333L3.59994 10.2666L3.23327 6.49995C3.18882 6.16662 3.2666 5.86128 3.4666 5.58395C3.6666 5.30573 3.93327 5.13328 4.2666 5.06662L7.93327 4.26662L9.8666 0.999949C10.0444 0.71106 10.2888 0.522172 10.5999 0.433283C10.911 0.344394 11.2222 0.355505 11.5333 0.466616L14.9999 1.93328L18.4666 0.466616C18.7777 0.355505 19.0888 0.344394 19.3999 0.433283C19.711 0.522172 19.9555 0.71106 20.1333 0.999949L22.0666 4.26662L25.7333 5.06662C26.0666 5.13328 26.3333 5.30573 26.5333 5.58395C26.7333 5.86128 26.811 6.16662 26.7666 6.49995L26.3999 10.2666L28.8999 13.1333C29.1222 13.3777 29.2333 13.6666 29.2333 13.9999C29.2333 14.3333 29.1222 14.6222 28.8999 14.8666L26.3999 17.7333L26.7666 21.5C26.811 21.8333 26.7333 22.1386 26.5333 22.416C26.3333 22.6942 26.0666 22.8666 25.7333 22.9333L22.0666 23.7333L20.1333 27C19.9555 27.2888 19.711 27.4777 19.3999 27.5666C19.0888 27.6555 18.7777 27.6444 18.4666 27.5333L14.9999 26.0666L11.5333 27.5333C11.2222 27.6444 10.911 27.6555 10.5999 27.5666C10.2888 27.4777 10.0444 27.2888 9.8666 27L7.93327 23.7333ZM12.6666 17.7999C12.911 18.0444 13.2222 18.1666 13.5999 18.1666C13.9777 18.1666 14.2888 18.0444 14.5333 17.7999L20.1999 12.1333C20.4666 11.8666 20.5999 11.5497 20.5999 11.1826C20.5999 10.8164 20.4666 10.4999 20.1999 10.2333C19.9333 9.96662 19.6168 9.83328 19.2506 9.83328C18.8835 9.83328 18.5666 9.96662 18.2999 10.2333L13.5999 14.9333L11.6666 13.0333C11.3999 12.7888 11.0835 12.6719 10.7173 12.6826C10.3502 12.6942 10.0444 12.8222 9.79994 13.0666C9.55549 13.3111 9.43327 13.6222 9.43327 13.9999C9.43327 14.3777 9.55549 14.6888 9.79994 14.9333L12.6666 17.7999Z" fill="url(#paint0_linear_825_2801)"/>
<defs>
<linearGradient id="paint0_linear_825_2801" x1="24.4888" y1="4.70955" x2="8.08708" y2="32.1484" gradientUnits="userSpaceOnUse">
<stop stop-color="#F2C94C"/>
<stop offset="1" stop-color="#947310"/>
</linearGradient>
</defs>
</svg>
