<svg width="23" height="22" viewBox="0 0 23 22" fill="none" xmlns="http://www.w3.org/2000/svg">
    <path
        d="M2.57588 17.4688C2.7949 17.7732 3.09844 17.9708 3.46595 18.0455L5.94022 18.5853L7.24816 20.7953L7.24809 20.7953L7.25262 20.8027C7.44507 21.1154 7.72462 21.3359 8.07927 21.4373C8.41021 21.5318 8.74535 21.5188 9.06977 21.4029L9.08325 21.3981L9.09642 21.3925L11.4458 20.3986L13.7951 21.3925L13.8083 21.3981L13.8218 21.4029C14.1462 21.5188 14.4813 21.5318 14.8123 21.4373C15.1669 21.3359 15.4465 21.1154 15.6389 20.8027L15.639 20.8027L15.6434 20.7953L16.9513 18.5853L19.4257 18.0455C19.7933 17.9708 20.0969 17.773 20.3159 17.4684C20.5339 17.166 20.6251 16.8176 20.5781 16.4478L20.3307 13.906L22.0207 11.9682C22.2658 11.6966 22.3915 11.3659 22.3915 11C22.3915 10.6341 22.2658 10.3034 22.0207 10.0318L20.3307 8.09398L20.5781 5.55217C20.6251 5.18216 20.5338 4.83365 20.3156 4.53108C20.0966 4.22672 19.7931 4.02916 19.4256 3.95452L16.9513 3.41467L15.6434 1.2047L15.6435 1.20467L15.6389 1.19732C15.4465 0.884574 15.1669 0.664057 14.8123 0.562728C14.4813 0.468175 14.1462 0.481216 13.8218 0.597082L13.8083 0.601895L13.7951 0.60747L11.4458 1.60142L9.09642 0.60747L9.08325 0.601895L9.06977 0.597082C8.74535 0.481216 8.41021 0.468175 8.07927 0.562728C7.72462 0.664057 7.44507 0.884574 7.25262 1.19732L7.25255 1.19728L7.24816 1.2047L5.94022 3.41467L3.4659 3.95452C3.09836 4.02918 2.7948 4.22684 2.57578 4.53135C2.35771 4.83387 2.26644 5.18231 2.3134 5.55221L2.56083 8.09398L0.870862 10.0318C0.625773 10.3034 0.5 10.6341 0.5 11C0.5 11.3659 0.625773 11.6966 0.870861 11.9682L2.56083 13.906L2.3134 16.4478C2.26643 16.8178 2.35773 17.1662 2.57588 17.4688ZM2.57588 17.4688C2.57591 17.4688 2.57594 17.4689 2.57597 17.4689L2.98152 17.1765L2.57553 17.4683C2.57565 17.4685 2.57576 17.4686 2.57588 17.4688ZM10.0679 12.0416L10.4214 12.389L10.7719 12.0385L14.2212 8.58922C14.326 8.48442 14.4325 8.4421 14.5653 8.4421C14.6971 8.4421 14.8034 8.48416 14.9085 8.58922C15.0135 8.69428 15.0556 8.80057 15.0556 8.93237C15.0556 9.06519 15.0133 9.17171 14.9085 9.27651L10.7497 13.4352C10.6733 13.5117 10.5765 13.5579 10.4183 13.5579C10.2601 13.5579 10.1634 13.5117 10.0869 13.4352L7.98307 11.3314C7.90661 11.2549 7.86042 11.1582 7.86042 11C7.86042 10.8418 7.90661 10.7451 7.98307 10.6686C8.06642 10.5852 8.16709 10.5379 8.3177 10.533C8.45544 10.5291 8.55933 10.5675 8.65609 10.6542L10.0679 12.0416Z"
        fill="white" fill-opacity="0.1" stroke="url(#paint0_linear_568_2470)" />
    <defs>
        <linearGradient id="paint0_linear_568_2470" x1="18.4096" y1="4.18182" x2="6.37246"
            y2="24.3191" gradientUnits="userSpaceOnUse">
            <stop stop-color="#F2C94C" />
            <stop offset="1" stop-color="#947310" />
        </linearGradient>
    </defs>
</svg>
    