<svg width="103" height="115" viewBox="0 0 103 115" fill="none" xmlns="http://www.w3.org/2000/svg">
    <path d="M60.7423 112.339C51.5209 112.339 42.4493 110.002 34.3703 105.545C26.2914 101.088 19.4674 94.6568 14.5324 86.848C9.59741 79.0392 6.71165 70.1065 6.14326 60.8801C5.57488 51.6537 7.34232 42.433 11.2814 34.0748C15.2204 25.7167 21.2032 18.4923 28.6737 13.0731C36.1443 7.65389 44.8601 4.21571 54.0114 3.07807C63.1627 1.94042 72.4523 3.14024 81.017 6.56601C89.5818 9.99178 97.1437 15.5323 103 22.6728C95.7294 13.098 85.6455 6.05097 74.1688 2.52455C62.692 -1.00188 50.4009 -0.830024 39.0267 3.0159C27.6525 6.86183 17.7686 14.188 10.7673 23.9624C3.76593 33.7368 0 45.4668 0 57.5C0 69.5332 3.76593 81.2632 10.7673 91.0376C17.7686 100.812 27.6525 108.138 39.0267 111.984C50.4009 115.83 62.692 116.002 74.1688 112.475C85.6455 108.949 95.7294 101.902 103 92.3272C97.8732 98.5905 91.4231 103.635 84.1153 107.095C76.8076 110.556 68.8245 112.347 60.7423 112.339Z" fill="url(#paint0_linear_610_2779)"/>
    <defs>
    <linearGradient id="paint0_linear_610_2779" x1="51.4544" y1="6.2703" x2="51.5811" y2="107.599" gradientUnits="userSpaceOnUse">
    <stop stop-color="#AB4DAB"/>
    <stop offset="1" stop-color="#AB4DAB" stop-opacity="0.2"/>
    </linearGradient>
    </defs>
    </svg>
    