<svg width="20" height="20" viewBox="0 0 20 20" fill="none" xmlns="http://www.w3.org/2000/svg">
    <g clip-path="url(#clip0_749_3035)">
        <path
            d="M10 20C15.5228 20 20 15.5228 20 10C20 4.47715 15.5228 0 10 0C4.47715 0 0 4.47715 0 10C0 15.5228 4.47715 20 10 20Z"
            fill="#0E071C" />
        <path
            d="M7.08391 12.656C6.48791 12.656 5.99991 12.516 5.61991 12.236C5.24391 11.952 5.05591 11.544 5.05591 11.02C5.05591 10.908 5.06791 10.776 5.09191 10.616C5.15591 10.256 5.24791 9.82395 5.36791 9.31595C5.70791 7.93995 6.58791 7.25195 8.00391 7.25195C8.38791 7.25195 8.73591 7.31595 9.03991 7.44795C9.34391 7.57195 9.58391 7.76395 9.75991 8.01995C9.93591 8.27195 10.0239 8.57195 10.0239 8.91995C10.0239 9.02395 10.0119 9.15595 9.98791 9.31595C9.91191 9.75995 9.82391 10.196 9.71591 10.616C9.53991 11.3 9.23991 11.816 8.80791 12.156C8.37991 12.492 7.80391 12.656 7.08391 12.656ZM7.19191 11.576C7.47191 11.576 7.70791 11.492 7.90391 11.328C8.10391 11.164 8.24791 10.912 8.33191 10.568C8.44791 10.096 8.53591 9.68795 8.59591 9.33595C8.61591 9.23195 8.62791 9.12395 8.62791 9.01195C8.62791 8.55595 8.39191 8.32795 7.91591 8.32795C7.63591 8.32795 7.39591 8.41195 7.19591 8.57595C6.99991 8.73995 6.85991 8.99195 6.77591 9.33595C6.68391 9.67195 6.59591 10.08 6.50391 10.568C6.48391 10.668 6.47191 10.772 6.47191 10.884C6.46791 11.348 6.71191 11.576 7.19191 11.576Z"
            fill="white" />
        <path
            d="M10.372 12.5841C10.316 12.5841 10.276 12.5681 10.244 12.5321C10.22 12.4921 10.212 12.4481 10.22 12.3961L11.256 7.51612C11.264 7.46012 11.292 7.41613 11.34 7.38013C11.384 7.34413 11.432 7.32812 11.484 7.32812H13.48C14.036 7.32812 14.48 7.44413 14.816 7.67213C15.156 7.90413 15.328 8.23613 15.328 8.67213C15.328 8.79613 15.312 8.92813 15.284 9.06413C15.16 9.64013 14.908 10.0641 14.524 10.3401C14.148 10.6161 13.632 10.7521 12.976 10.7521H11.964L11.62 12.3961C11.608 12.4521 11.584 12.4961 11.536 12.5321C11.492 12.5681 11.444 12.5841 11.392 12.5841H10.372ZM13.028 9.71613C13.24 9.71613 13.42 9.66013 13.576 9.54413C13.736 9.42813 13.84 9.26413 13.892 9.04813C13.908 8.96413 13.916 8.88813 13.916 8.82413C13.916 8.68013 13.872 8.56813 13.788 8.49213C13.704 8.41213 13.556 8.37213 13.352 8.37213H12.452L12.168 9.71613H13.028Z"
            fill="white" />
    </g>
    <defs>
        <clipPath id="clip0_749_3035">
            <rect width="20" height="20" fill="white" />
        </clipPath>
    </defs>
</svg>
    