<svg width="20" height="18" viewBox="0 0 20 18" fill="none" xmlns="http://www.w3.org/2000/svg">
<path d="M14.5914 5.82728C14.2633 5.63982 13.8415 5.63982 13.4666 5.82728L10.842 7.37389L9.0611 8.35809L6.48342 9.9047C6.15535 10.0922 5.73355 10.0922 5.35862 9.9047L3.34334 8.68616C3.01527 8.49869 2.78094 8.12376 2.78094 7.70196V5.35862C2.78094 4.98368 2.96841 4.60875 3.34334 4.37441L5.35862 3.20274C5.68668 3.01527 6.10849 3.01527 6.48342 3.20274L8.49869 4.42128C8.82676 4.60875 9.0611 4.98368 9.0611 5.40548V6.95209L10.842 5.92102V4.32755C10.842 3.95261 10.6546 3.57768 10.2796 3.34334L6.53029 1.1406C6.20222 0.953133 5.78042 0.953133 5.40548 1.1406L1.5624 3.39021C1.18747 3.57768 1 3.95261 1 4.32755V8.73303C1 9.10796 1.18747 9.4829 1.5624 9.71723L5.35862 11.92C5.68668 12.1074 6.10849 12.1074 6.48342 11.92L9.0611 10.4202L10.842 9.38916L13.4197 7.88943C13.7478 7.70196 14.1696 7.70196 14.5445 7.88943L16.5598 9.0611C16.8879 9.24856 17.1222 9.6235 17.1222 10.0453V12.3886C17.1222 12.7636 16.9347 13.1385 16.5598 13.3728L14.5914 14.5445C14.2633 14.732 13.8415 14.732 13.4666 14.5445L11.4513 13.3728C11.1232 13.1854 10.8889 12.8104 10.8889 12.3886V10.8889L9.10796 11.92V13.4666C9.10796 13.8415 9.29543 14.2164 9.67037 14.4508L13.4666 16.6535C13.7946 16.841 14.2164 16.841 14.5914 16.6535L18.3876 14.4508C18.7157 14.2633 18.95 13.8884 18.95 13.4666V9.01423C18.95 8.6393 18.7625 8.26436 18.3876 8.03003L14.5914 5.82728Z" fill="white" fill-opacity="0.7"/>
</svg>
