<svg width="20" height="20" viewBox="0 0 20 20" fill="none" xmlns="http://www.w3.org/2000/svg">
<path fill-rule="evenodd" clip-rule="evenodd" d="M5.06694 2.27759C5.24457 2.0999 5.4855 2.00005 5.73675 2H18.0528C18.2402 2.00004 18.4233 2.05562 18.579 2.15973C18.7348 2.26383 18.8562 2.41178 18.9279 2.58487C18.9996 2.75795 19.0183 2.94841 18.9818 3.13216C18.9453 3.31591 18.8551 3.4847 18.7226 3.61719L15.8804 6.45936C15.7028 6.63705 15.4619 6.7369 15.2106 6.73695H2.89458C2.70723 6.73691 2.5241 6.68132 2.36834 6.57722C2.21258 6.47312 2.09118 6.32517 2.01949 6.15208C1.94781 5.97899 1.92904 5.78854 1.96558 5.60479C2.00212 5.42104 2.09232 5.25225 2.22477 5.11976L5.06694 2.27759ZM2.05898 8.18456C2.13994 8.03335 2.26042 7.90696 2.40758 7.81886C2.55474 7.73076 2.72306 7.68427 2.89458 7.68434H15.2106C15.3666 7.68432 15.5201 7.72278 15.6576 7.79633C15.7951 7.86987 15.9123 7.97621 15.9989 8.10593L17.8937 10.9481C17.9888 11.0908 18.0435 11.2566 18.0518 11.4279C18.0602 11.5993 18.0218 11.7696 17.9409 11.9208C17.86 12.0721 17.7395 12.1985 17.5924 12.2866C17.4452 12.3748 17.2769 12.4213 17.1054 12.4213H4.78936C4.63342 12.4213 4.4799 12.3828 4.34239 12.3093C4.20489 12.2358 4.08767 12.1294 4.00113 11.9997L2.10635 9.15753C2.0111 9.01484 1.95638 8.84896 1.94803 8.6776C1.93969 8.50624 1.97804 8.33583 2.05898 8.18456ZM4.11955 13.6463C4.29718 13.4686 4.53811 13.3687 4.78936 13.3687H17.1054C17.2928 13.3687 17.4759 13.4243 17.6317 13.5284C17.7874 13.6325 17.9088 13.7805 17.9805 13.9535C18.0522 14.1266 18.071 14.3171 18.0344 14.5008C17.9979 14.6846 17.9077 14.8534 17.7752 14.9859L14.9331 17.828C14.7554 18.0057 14.5145 18.1056 14.2633 18.1056H1.94719C1.75984 18.1056 1.57671 18.05 1.42095 17.9459C1.26519 17.8418 1.14379 17.6938 1.0721 17.5208C1.00042 17.3477 0.981655 17.1572 1.01819 16.9735C1.05473 16.7897 1.14493 16.6209 1.27738 16.4884L4.11955 13.6463Z" fill="#0E071C" fill-opacity="0.7"/>
</svg>
